<?xml version="1.0" standalone="no"?>
<!DOCTYPE svg PUBLIC "-//W3C//DTD SVG 20010904//EN"
 "http://www.w3.org/TR/2001/REC-SVG-20010904/DTD/svg10.dtd">
<svg version="1.0" xmlns="http://www.w3.org/2000/svg"
 width="860.000000pt" height="860.000000pt" viewBox="0 0 860.000000 860.000000"
 preserveAspectRatio="xMidYMid meet">
<metadata>
Created by potrace 1.11, written by Peter Selinger 2001-2013
</metadata>
<g transform="translate(0.000000,860.000000) scale(0.100000,-0.100000)"
fill="#000000" stroke="none">
<path d="M5677 6933 c-1 0 -42 -4 -92 -7 -49 -4 -106 -8 -125 -11 -19 -2 -78
-6 -130 -10 -52 -4 -111 -8 -130 -10 -19 -2 -75 -6 -125 -9 -90 -7 -143 -11
-245 -20 -30 -3 -95 -8 -145 -12 -49 -3 -106 -7 -125 -9 -19 -2 -75 -7 -125
-10 -49 -4 -106 -8 -125 -10 -19 -2 -78 -6 -130 -10 -52 -4 -111 -8 -130 -10
-19 -2 -75 -6 -125 -10 -49 -3 -106 -8 -125 -10 -19 -2 -73 -7 -120 -10 -47
-3 -105 -8 -130 -10 -72 -6 -180 -15 -250 -20 -164 -13 -295 -23 -380 -30 -30
-2 -89 -7 -130 -10 -41 -3 -97 -8 -125 -11 -27 -2 -83 -6 -124 -9 -192 -14
-181 -10 -236 -68 -74 -78 -375 -400 -441 -472 -28 -32 -218 -236 -269 -290
-16 -17 -77 -83 -135 -145 -58 -62 -118 -128 -135 -146 -16 -17 -73 -78 -125
-134 -52 -56 -111 -119 -130 -140 -19 -21 -80 -86 -135 -146 -55 -59 -111
-120 -125 -134 -24 -25 -254 -272 -275 -296 -5 -6 -59 -63 -118 -126 -165
-177 -151 -157 -125 -187 13 -14 25 -28 28 -31 3 -3 38 -43 79 -90 40 -47 85
-98 100 -115 15 -16 69 -79 121 -140 52 -60 97 -112 100 -115 3 -3 30 -34 60
-70 30 -35 64 -74 75 -85 11 -12 40 -45 65 -75 25 -29 61 -71 80 -93 19 -22
43 -49 53 -61 11 -12 40 -45 65 -75 26 -30 112 -129 192 -221 80 -91 226 -259
325 -373 188 -218 186 -216 285 -234 14 -2 86 -18 160 -35 74 -17 171 -39 215
-48 93 -21 223 -50 245 -55 8 -2 56 -13 105 -23 50 -11 243 -54 430 -96 341
-77 363 -81 411 -91 14 -3 56 -13 93 -21 36 -9 76 -18 88 -20 13 -2 132 -29
265 -59 134 -31 257 -58 273 -61 17 -2 37 -7 46 -10 14 -4 173 52 969 343 52
19 149 54 215 77 66 24 215 78 330 121 116 42 264 96 330 120 66 24 200 74
299 110 l178 66 182 -6 c188 -5 397 -12 621 -20 72 -2 225 -7 340 -10 116 -3
261 -8 323 -10 61 -2 112 -3 112 -1 0 2 -16 100 -35 217 -20 118 -38 225 -40
239 -2 14 -22 133 -44 266 -23 132 -43 256 -45 275 -3 19 -7 48 -10 64 -3 17
-44 263 -90 548 -47 285 -90 526 -96 537 -5 10 -14 20 -19 22 -5 1 -73 64
-152 139 -79 75 -160 151 -179 169 -19 18 -102 96 -184 174 -82 77 -158 149
-169 158 -18 16 -172 161 -523 494 -38 36 -241 228 -359 339 -27 26 -103 97
-169 158 -65 62 -150 142 -189 179 -68 65 -71 67 -119 65 -27 -1 -50 -3 -51
-4z m-1127 -638 c610 -88 1125 -495 1353 -1070 36 -90 84 -259 92 -325 3 -19
7 -46 10 -60 14 -61 17 -321 6 -420 -16 -137 -16 -140 -46 -253 -91 -351 -299
-672 -585 -901 -81 -65 -201 -146 -217 -146 -6 0 -13 -4 -15 -9 -4 -11 -156
-83 -243 -116 -64 -24 -190 -61 -240 -70 -16 -3 -43 -7 -60 -11 -139 -26 -387
-30 -533 -8 -263 39 -487 123 -702 264 -438 288 -726 772 -766 1290 -5 65 -4
236 1 295 35 392 215 776 491 1051 269 268 645 454 992 490 31 4 59 8 61 10
10 9 319 0 401 -11z"/>
<path d="M4189 5876 c-2 -2 -26 -6 -54 -9 -27 -4 -61 -9 -75 -12 -14 -2 -36
-7 -49 -10 -14 -2 -54 -14 -90 -26 -36 -12 -67 -22 -68 -21 -1 0 -46 -21 -100
-47 -123 -61 -252 -153 -345 -245 -69 -70 -148 -165 -148 -180 0 -5 137 -215
305 -467 168 -253 305 -464 305 -469 0 -6 4 -10 8 -10 5 0 17 -16 28 -35 10
-19 22 -35 26 -35 5 0 8 -4 8 -10 0 -5 29 -53 65 -105 36 -53 65 -100 65 -106
0 -5 5 -9 11 -9 5 0 8 -4 4 -9 -3 -6 -15 -8 -28 -5 -22 4 -72 9 -192 20 -33 3
-76 7 -95 9 -19 2 -66 7 -105 10 -38 4 -86 8 -105 10 -19 2 -64 7 -100 10 -36
3 -83 7 -105 10 -22 2 -76 6 -120 10 -44 3 -90 8 -102 11 -13 2 -23 1 -23 -2
0 -16 92 -198 126 -251 195 -299 519 -508 879 -567 115 -19 340 -15 450 9 165
36 372 125 480 208 70 53 96 74 130 107 204 193 327 408 387 675 22 99 33 347
18 425 -4 25 -10 59 -13 75 -19 114 -67 251 -131 370 -24 46 -49 90 -55 97 -6
7 -31 40 -55 73 -171 231 -461 416 -749 476 -89 19 -375 37 -388 25z"/>
</g>
</svg>
