<?xml version="1.0" standalone="no"?>
<!DOCTYPE svg PUBLIC "-//W3C//DTD SVG 20010904//EN"
 "http://www.w3.org/TR/2001/REC-SVG-20010904/DTD/svg10.dtd">
<svg version="1.0" xmlns="http://www.w3.org/2000/svg"
 width="260.000000pt" height="260.000000pt" viewBox="0 0 260.000000 260.000000"
 preserveAspectRatio="xMidYMid meet">
<metadata>
Created by potrace 1.11, written by Peter Selinger 2001-2013
</metadata>
<g transform="translate(0.000000,260.000000) scale(0.100000,-0.100000)"
fill="#000000" stroke="none">
<path d="M1110 2565 c-214 -36 -421 -122 -580 -241 -83 -63 -220 -207 -279
-293 -159 -233 -225 -446 -225 -726 -1 -178 10 -248 59 -401 146 -447 509
-765 990 -865 66 -14 333 -18 405 -7 543 87 961 480 1075 1013 23 110 28 325
10 445 -83 534 -479 950 -1015 1066 -97 21 -341 26 -440 9z m306 -789 c23 -2
59 -12 80 -21 21 -9 39 -16 39 -15 0 1 28 -7 53 -17 23 -8 45 -14 60 -15 6 -1
12 -4 12 -8 0 -3 16 -12 35 -19 19 -6 56 -27 84 -46 27 -19 51 -32 54 -29 3 3
8 -4 12 -15 3 -12 10 -19 14 -17 4 3 22 -11 40 -30 19 -19 38 -34 43 -34 5 0
6 -4 3 -10 -3 -5 2 -10 11 -10 10 0 15 -3 11 -6 -3 -3 5 -16 19 -29 13 -12 24
-27 24 -34 0 -6 4 -11 9 -11 8 0 12 -9 28 -60 17 -55 -1 -140 -35 -167 -9 -7
-12 -13 -8 -13 4 0 -7 -15 -23 -32 -17 -18 -31 -37 -31 -41 0 -5 -4 -5 -10 -2
-5 3 -10 -1 -10 -10 0 -8 -8 -19 -17 -22 -10 -4 -33 -22 -52 -40 -19 -18 -36
-31 -38 -29 -2 2 -16 -7 -30 -20 -14 -13 -32 -24 -39 -24 -8 0 -14 -4 -14 -10
0 -5 -7 -10 -15 -10 -8 0 -15 -4 -15 -10 0 -5 -6 -7 -14 -4 -8 3 -17 1 -21 -5
-3 -6 -15 -11 -26 -11 -10 0 -19 -4 -19 -10 0 -5 -3 -9 -7 -9 -5 1 -10 0 -13
-1 -6 -2 -27 -7 -60 -13 -14 -3 -27 -7 -30 -8 -3 -1 -9 -3 -15 -4 -5 -2 -13
-4 -17 -5 -5 -1 -12 -4 -18 -5 -5 -1 -11 -3 -12 -5 -5 -3 -44 -11 -80 -14 -20
-2 -40 -6 -45 -9 -4 -3 -27 -2 -51 3 -29 5 -42 4 -42 -4 0 -6 -5 -4 -10 4 -5
8 -10 12 -10 8 0 -4 -15 -2 -32 3 -18 6 -46 13 -63 16 -16 3 -37 8 -45 13 -8
4 -23 6 -32 5 -10 -2 -18 0 -18 4 0 4 -8 7 -17 8 -10 1 -39 11 -66 22 -26 11
-51 21 -55 22 -4 1 -19 10 -34 21 -16 11 -28 17 -28 14 0 -3 -9 2 -19 12 -37
32 -50 42 -61 42 -5 0 -10 5 -10 10 0 6 -11 16 -25 22 -14 6 -25 15 -25 19 0
5 -20 27 -45 50 -25 23 -42 45 -40 49 3 5 -4 12 -16 15 -11 4 -18 9 -15 12 3
3 -1 18 -10 34 -8 16 -12 29 -8 29 4 0 2 6 -4 13 -13 15 -7 84 9 103 6 8 8 14
4 14 -5 0 0 9 10 20 10 11 14 20 9 20 -5 0 -1 5 9 11 9 6 15 14 12 20 -4 5 -1
9 4 9 11 0 51 36 51 46 0 7 27 34 35 34 3 0 17 12 30 26 14 15 25 23 25 18 0
-5 7 2 16 14 8 12 21 22 29 22 7 0 15 4 17 9 2 5 10 11 18 13 8 2 23 11 34 20
10 10 23 15 28 12 4 -3 8 0 8 5 0 6 3 10 8 9 4 -1 17 3 29 10 12 6 30 13 40
15 10 1 23 6 29 9 6 4 26 10 45 13 31 6 60 12 67 14 1 1 3 0 5 -1 1 -1 12 4
25 11 13 7 37 13 53 13 16 1 31 4 33 7 5 7 120 5 182 -3z"/>
<path d="M1200 1679 c-8 -5 -37 -19 -65 -31 -91 -40 -180 -151 -207 -256 -10
-40 -12 -119 -5 -168 5 -32 44 -121 62 -141 5 -6 21 -25 34 -43 30 -39 94 -83
146 -101 22 -7 45 -16 50 -20 19 -13 159 -7 195 9 19 9 40 16 45 17 23 5 106
68 135 103 53 65 96 177 94 247 -2 80 -33 177 -71 226 -59 77 -139 134 -217
157 -33 9 -179 10 -196 1z"/>
</g>
</svg>
